{
  "accessors": [
    {
      "bufferView": 2,
      "componentType": 5126,
      "count": 4288,
      "max": [
        18.174551010131836,
        14.309745788574219,
        8.678203582763672
      ],
      "min": [
        -18.174551010131836,
        2.890655994415283,
        -49.182212829589844
      ],
      "type": "VEC3"
    },
    {
      "bufferView": 2,
      "byteOffset": 51456,
      "componentType": 5126,
      "count": 4288,
      "max": [
        0.9998286962509155,
        0.9999603033065796,
        0.9999403953552246
      ],
      "min": [
        -0.9998286962509155,
        -0.9999678134918213,
        -0.9997004270553589
      ],
      "type": "VEC3"
    },
    {
      "bufferView": 1,
      "componentType": 5126,
      "count": 4288,
      "max": [
        0.9882011413574219,
        1.0
      ],
      "min": [
        0.0,
        0.0
      ],
      "type": "VEC2"
    },
    {
      "bufferView": 0,
      "componentType": 5125,
      "count": 16056,
      "type": "SCALAR"
    }
  ],
  "asset": {
    "extras": {
      "author": "Thibaut-Bouten (https://sketchfab.com/Thibaut-Bouten)",
      "license": "SKETCHFAB Standard (https://sketchfab.com/licenses)",
      "source": "https://sketchfab.com/3d-models/low-poly-male-basemesh-a1c00897534849c9ad2926841b28bc11",
      "title": "Low-Poly male basemesh"
    },
    "generator": "Sketchfab-12.90.0",
    "version": "2.0"
  },
  "bufferViews": [
    {
      "buffer": 0,
      "byteLength": 64224,
      "name": "floatBufferViews",
      "target": 34963
    },
    {
      "buffer": 0,
      "byteLength": 34304,
      "byteOffset": 64224,
      "byteStride": 8,
      "name": "floatBufferViews",
      "target": 34962
    },
    {
      "buffer": 0,
      "byteLength": 102912,
      "byteOffset": 98528,
      "byteStride": 12,
      "name": "floatBufferViews",
      "target": 34962
    }
  ],
  "buffers": [
    {
      "byteLength": 201440,
      "uri": "scene.bin"
    }
  ],
  "materials": [
    {
      "doubleSided": true,
      "name": "Material.005",
      "pbrMetallicRoughness": {
        "baseColorFactor": [
          0.8,
          0.8,
          0.8,
          1.0
        ],
        "metallicFactor": 0.0,
        "roughnessFactor": 0.8211145618
      }
    }
  ],
  "meshes": [
    {
      "name": "LP_Model_Material.005_0",
      "primitives": [
        {
          "attributes": {
            "NORMAL": 1,
            "POSITION": 0,
            "TEXCOORD_0": 2
          },
          "indices": 3,
          "material": 0,
          "mode": 4
        }
      ]
    }
  ],
  "nodes": [
    {
      "children": [
        1
      ],
      "matrix": [
        1.0,
        0.0,
        0.0,
        0.0,
        0.0,
        2.220446049250313e-16,
        -1.0,
        0.0,
        0.0,
        1.0,
        2.220446049250313e-16,
        0.0,
        0.0,
        0.0,
        0.0,
        1.0
      ],
      "name": "Sketchfab_model"
    },
    {
      "children": [
        2
      ],
      "matrix": [
        0.009999999776482582,
        0.0,
        0.0,
        0.0,
        0.0,
        0.0,
        0.009999999776482582,
        0.0,
        0.0,
        -0.009999999776482582,
        0.0,
        0.0,
        0.0,
        0.0,
        0.0,
        1.0
      ],
      "name": "031490dd73d449958c03c99539416a9e.fbx"
    },
    {
      "children": [
        3
      ],
      "name": "RootNode"
    },
    {
      "children": [
        4
      ],
      "matrix": [
        8.128320693969727,
        0.0,
        0.0,
        0.0,
        0.0,
        -1.3242715297762304e-06,
        -8.12832069396962,
        0.0,
        0.0,
        8.12832069396962,
        -1.3242715297762304e-06,
        0.0,
        0.0,
        400.2082214355469,
        70.54673767089844,
        1.0
      ],
      "name": "LP_Model"
    },
    {
      "mesh": 0,
      "name": "LP_Model_Material.005_0"
    }
  ],
  "scene": 0,
  "scenes": [
    {
      "name": "Sketchfab_Scene",
      "nodes": [
        0
      ]
    }
  ]
}
